Coordinates
version=1
nRows=14
nColumns=46
inDegrees=yes

Units are S.I. units (second, meters, Newtons, ...)
Angles are in degrees.

endheader
time	pelvis_tilt	pelvis_list	pelvis_rotation	pelvis_tx	pelvis_ty	pelvis_tz	bb_angle	bb_tx	bb_ty	bb_tz	hip_flexion_r	hip_adduction_r	hip_rotation_r	knee_angle_r	knee_angle_r_beta	ankle_angle_r	subtalar_angle_r	mtp_angle_r	crank_angle_r	hip_flexion_l	hip_adduction_l	hip_rotation_l	knee_angle_l	knee_angle_l_beta	ankle_angle_l	subtalar_angle_l	mtp_angle_l	crank_angle_l	lumbar_extension	lumbar_bending	lumbar_rotation	arm_flex_r	arm_add_r	arm_rot_r	elbow_flex_r	pro_sup_r	wrist_flex_r	wrist_dev_r	arm_flex_l	arm_add_l	arm_rot_l	elbow_flex_l	pro_sup_l	wrist_flex_l	wrist_dev_l
      2.50500000	    -26.40736799	     -7.15690578	     -0.56150728	      0.35237049	      1.06641025	     -0.18702894	      0.00000000	      0.50000000	      0.00000000	      0.25000000	     77.55000501	      3.65381400	     -0.38805388	    113.86019584	      1.98723530	      1.18990830	     -4.77323890	      0.00000000	      0.00000000	     32.75828341	    -14.18151504	     -8.55358808	     22.74621960	      0.39699642	    -19.99678414	     -1.04055493	      0.00000000	      0.00000000	    -46.90133658	      1.77707271	     -3.06158553	     49.40399248	    -13.86534458	     38.53441915	     72.02116607	     52.17218559	      0.00000000	      0.00000000	     28.14996937	    -24.35623837	      8.96258248	     93.06825599	     51.16803530	      0.00000000	      0.00000000
      2.51000000	    -26.92455370	     -7.52824484	     -0.86024970	      0.35092957	      1.06887768	     -0.18576905	      0.00000000	      0.50000000	      0.00000000	      0.25000000	     78.42727022	      4.15763858	     -0.82539247	    113.42138242	      1.97957657	      2.18165913	     -5.00202123	      0.00000000	      0.00000000	     32.74255297	    -14.74140217	     -9.01027590	     21.80345434	      0.38054207	    -21.93102122	     -0.52942285	      0.00000000	      0.00000000	    -46.95020390	      2.07228694	     -2.51738014	     49.85953071	    -13.76902549	     38.50772138	     72.27975532	     52.20604711	      0.00000000	      0.00000000	     28.56215653	    -24.44826376	      8.79399372	     93.05454801	     51.15146931	      0.00000000	      0.00000000
      2.51500000	    -27.29569670	     -7.55579995	     -1.27514625	      0.34976814	      1.07202678	     -0.18479795	      0.00000000	      0.50000000	      0.00000000	      0.25000000	     79.07187881	      4.58677458	     -0.91352898	    112.83330552	      1.96931269	      2.90636432	     -5.30637453	      0.00000000	      0.00000000	     32.23659941	    -14.88240170	     -9.64490405	     20.31282689	      0.35452571	    -24.60636424	     -0.94674169	      0.00000000	      0.00000000	    -47.15196765	      1.99979237	     -1.82851954	     50.14823996	    -14.22983894	     38.63088402	     72.85889883	     52.31971158	      0.00000000	      0.00000000	     29.18156945	    -24.07411809	      8.70585308	     92.64814360	     51.10398049	      0.00000000	      0.00000000
      2.52000000	    -27.77231823	     -7.68416329	     -1.53624155	      0.34825180	      1.07500166	     -0.18402457	      0.00000000	      0.50000000	      0.00000000	      0.25000000	     79.78442723	      4.90541451	     -1.10812532	    112.18069486	      1.95792248	      3.83774838	     -5.44292177	      0.00000000	      0.00000000	     32.06757483	    -15.06077858	     -9.98074809	     19.06415617	      0.33273229	    -27.23354030	     -1.15949128	      0.00000000	      0.00000000	    -47.25058966	      2.11294309	     -0.78740145	     50.23072785	    -15.18154091	     38.56019158	     74.17605505	     52.54881471	      0.00000000	      0.00000000	     30.49237889	    -23.31370791	      8.98880837	     91.55007874	     51.05521114	      0.00000000	      0.00000000
      2.52500000	    -28.26955076	     -7.77096150	     -1.99815483	      0.34699193	      1.07804368	     -0.18291144	      0.00000000	      0.50000000	      0.00000000	      0.25000000	     80.48528394	      5.39478961	     -1.26310444	    111.46247394	      1.94538716	      4.59998546	     -5.74340896	      0.00000000	      0.00000000	     31.86798674	    -15.36137648	    -10.73501583	     17.86226271	      0.31175530	    -29.77941183	     -1.09092987	      0.00000000	      0.00000000	    -47.35920621	      2.06581779	     -0.23636018	     50.55522889	    -15.22341846	     38.36143749	     74.47676075	     52.57746297	      0.00000000	      0.00000000	     30.94403814	    -23.19339720	      8.97716819	     91.43455801	     51.07168956	      0.00000000	      0.00000000
      2.53000000	    -28.86135215	     -7.97304525	     -2.32723993	      0.34546849	      1.08086387	     -0.18187411	      0.00000000	      0.50000000	      0.00000000	      0.25000000	     81.22623184	      5.81767577	     -1.54095475	    110.66472565	      1.93146383	      5.45377068	     -6.02684428	      0.00000000	      0.00000000	     32.00145600	    -15.75500425	    -11.26492423	     16.99175550	      0.29656208	    -32.00074527	     -0.68984578	      0.00000000	      0.00000000	    -47.38287056	      2.24794736	      0.24364041	     51.07215092	    -15.08000629	     38.29817473	     74.72804161	     52.60387047	      0.00000000	      0.00000000	     31.31650928	    -23.24016669	      8.82159208	     91.42569983	     51.05919242	      0.00000000	      0.00000000
      2.53500000	    -29.29141151	     -7.95171756	     -2.69575979	      0.34428303	      1.08416205	     -0.18089166	      0.00000000	      0.50000000	      0.00000000	      0.25000000	     81.71072404	      6.21866526	     -1.56267507	    109.75723169	      1.91562507	      6.18777336	     -6.26093088	      0.00000000	      0.00000000	     31.64845936	    -15.82683556	    -11.73411487	     15.55103403	      0.27141675	    -34.79190540	     -1.06898381	      0.00000000	      0.00000000	    -47.52265141	      2.17272299	      0.72799628	     51.35910123	    -15.23611251	     38.31832301	     75.07186876	     52.66155913	      0.00000000	      0.00000000	     31.72056674	    -22.88536301	      8.61240853	     91.14478433	     51.01723909	      0.00000000	      0.00000000
      2.54000000	    -29.89859509	     -8.11158708	     -2.97431362	      0.34278131	      1.08692322	     -0.18001399	      0.00000000	      0.50000000	      0.00000000	      0.25000000	     82.34888917	      6.56477204	     -1.78412346	    108.78890288	      1.89872454	      7.10101360	     -6.42340935	      0.00000000	      0.00000000	     31.85333723	    -16.14090369	    -12.11942674	     14.82564200	      0.25875627	    -36.82181193	     -0.60476889	      0.00000000	      0.00000000	    -47.50137953	      2.33452237	      1.12444107	     51.86137047	    -15.10980252	     38.25338613	     75.36530009	     52.69434092	      0.00000000	      0.00000000	     32.16360091	    -22.86441039	      8.43500503	     91.13079759	     51.00039666	      0.00000000	      0.00000000
      2.54500000	    -30.46059643	     -8.26089040	     -3.32181893	      0.34163576	      1.08978146	     -0.17898679	      0.00000000	      0.50000000	      0.00000000	      0.25000000	     82.84502553	      6.98992823	     -1.99503120	    107.71688004	      1.88001422	      7.97959246	     -6.60511637	      0.00000000	      0.00000000	     31.89110965	    -16.46121894	    -12.48313662	     14.05815576	      0.24536110	    -38.26816880	     -0.36366635	      0.00000000	      0.00000000	    -47.50999203	      2.42557959	      1.59478311	     52.20600184	    -15.04444648	     38.23795022	     75.62977214	     52.73022365	      0.00000000	      0.00000000	     32.42944137	    -22.75017180	      8.24474506	     91.03986435	     50.97252644	      0.00000000	      0.00000000
      2.55000000	    -31.00521112	     -8.33391969	     -3.60181516	      0.34036372	      1.09234470	     -0.17801903	      0.00000000	      0.50000000	      0.00000000	      0.25000000	     83.31364837	      7.32487428	     -2.10979455	    106.65297476	      1.86144557	      8.81386068	     -6.76336135	      0.00000000	      0.00000000	     31.99232879	    -16.68272791	    -12.70295710	     13.59488173	      0.23727545	    -38.90827503	     -0.08589785	      0.00000000	      0.00000000	    -47.49053687	      2.49364752	      1.96252061	     52.53679691	    -15.02534518	     38.20153595	     75.90481818	     52.76581392	      0.00000000	      0.00000000	     32.71741998	    -22.60772651	      8.04681296	     90.95145878	     50.94324845	      0.00000000	      0.00000000
      2.55500000	    -31.62672615	     -8.50162745	     -4.00525815	      0.33910725	      1.09468203	     -0.17713613	      0.00000000	      0.50000000	      0.00000000	      0.25000000	     83.78111493	      7.77937880	     -2.30064378	    105.44672452	      1.84039253	      9.66733099	     -6.82050842	      0.00000000	      0.00000000	     32.26296381	    -17.10474499	    -13.05082239	     13.50322440	      0.23567573	    -39.11798999	      0.39176628	      0.00000000	      0.00000000	    -47.36170542	      2.51115183	      3.41503225	     52.01700946	    -16.48658550	     37.62054119	     77.91561756	     53.04008913	      0.00000000	      0.00000000	     33.99858579	    -21.02232633	      8.26411211	     89.39504749	     50.95213477	      0.00000000	      0.00000000
      2.56000000	    -32.20081813	     -8.49528742	     -4.27270293	      0.33782492	      1.09682225	     -0.17641338	      0.00000000	      0.50000000	      0.00000000	      0.25000000	     84.17956769	      8.03545863	     -2.34495136	    104.25483540	      1.81959014	     10.49811952	     -6.96715264	      0.00000000	      0.00000000	     32.46998922	    -17.22134207	    -13.12111665	     13.45139762	      0.23477118	    -39.17691997	      0.35166070	      0.00000000	      0.00000000	    -47.27279441	      2.55597543	      3.66656666	     52.37337333	    -16.34521035	     37.56498896	     78.09958861	     53.05713532	      0.00000000	      0.00000000	     34.22866245	    -21.02644083	      8.14445970	     89.42036715	     50.94998536	      0.00000000	      0.00000000
      2.56500000	    -32.82629570	     -8.61978444	     -4.50182312	      0.33656157	      1.09876326	     -0.17555640	      0.00000000	      0.50000000	      0.00000000	      0.25000000	     84.54888620	      8.28037213	     -2.56385852	    102.94877741	      1.79679513	     11.36020807	     -7.05839531	      0.00000000	      0.00000000	     32.85971039	    -17.47472977	    -13.04365086	     13.68020760	      0.23876466	    -39.10050243	      0.08169069	      0.00000000	      0.00000000	    -47.12600351	      2.72528749	      4.02918146	     52.66017288	    -16.26298000	     37.54020420	     78.34685913	     53.08863315	      0.00000000	      0.00000000	     34.40393793	    -20.93085926	      7.94024804	     89.38460647	     50.93556687	      0.00000000	      0.00000000
      2.57000000	    -33.40459939	     -8.61316549	     -4.71115551	      0.33551015	      1.10058422	     -0.17494945	      0.00000000	      0.50000000	      0.00000000	      0.25000000	     84.78319657	      8.47032507	     -2.61897230	    101.58427302	      1.77298003	     12.22512129	     -7.28894261	      0.00000000	      0.00000000	     33.17361371	    -17.55067325	    -12.91715856	     13.99605953	      0.24427732	    -38.87606985	     -0.40375992	      0.00000000	      0.00000000	    -46.95497568	      2.83050188	      4.28458709	     52.88866344	    -16.21826186	     37.51337443	     78.59267829	     53.12064843	      0.00000000	      0.00000000	     34.57734525	    -20.80507727	      7.75744821	     89.33040405	     50.91743472	      0.00000000	      0.00000000
